<?xml version="1.0" standalone="no"?>
<!DOCTYPE svg PUBLIC "-//W3C//DTD SVG 20010904//EN"
 "http://www.w3.org/TR/2001/REC-SVG-20010904/DTD/svg10.dtd">
<svg version="1.0" xmlns="http://www.w3.org/2000/svg"
 width="1392.000000pt" height="1392.000000pt" viewBox="0 0 1392.000000 1392.000000"
 preserveAspectRatio="xMidYMid meet">
<metadata>
Created by potrace 1.11, written by Peter Selinger 2001-2013
</metadata>
<g transform="translate(0.000000,1392.000000) scale(0.100000,-0.100000)"
fill="#000000" stroke="none">
<path d="M1649 11903 c0 -5 -2 -17 -5 -28 -2 -11 -6 -36 -9 -55 -2 -19 -7 -46
-10 -60 -3 -14 -8 -45 -11 -70 -3 -25 -8 -54 -11 -65 -2 -11 -6 -31 -8 -45 -3
-22 -9 -56 -19 -115 -2 -11 -7 -40 -10 -65 -9 -56 -14 -85 -16 -85 -1 0 -3
-13 -5 -30 -1 -16 -5 -46 -9 -65 -9 -47 -33 -191 -41 -245 -3 -16 -7 -41 -10
-55 -3 -14 -7 -43 -10 -65 -3 -22 -10 -62 -16 -90 -5 -27 -11 -63 -13 -80 -2
-16 -9 -57 -15 -90 -6 -33 -13 -71 -15 -85 -7 -45 -20 -125 -22 -140 -1 -8 -4
-28 -8 -45 -3 -16 -8 -47 -11 -69 -4 -21 -9 -48 -12 -60 -2 -11 -6 -37 -8 -56
-2 -19 -4 -35 -5 -35 -2 0 -7 -29 -16 -85 -3 -25 -8 -58 -11 -75 -9 -66 -12
-80 -13 -80 -2 0 -8 -35 -15 -85 -3 -25 -9 -54 -12 -65 -3 -11 -7 -36 -9 -55
-1 -19 -3 -35 -4 -35 -1 0 -3 -11 -5 -25 -8 -60 -22 -145 -25 -145 -1 0 -3
-13 -5 -30 -1 -16 -3 -30 -5 -30 -1 0 -3 -13 -5 -30 -3 -35 -14 -103 -20 -125
-2 -8 -7 -35 -10 -60 -3 -25 -10 -67 -16 -95 -5 -27 -11 -66 -14 -85 -3 -19
-6 -44 -9 -55 -2 -11 -7 -40 -11 -65 -4 -25 -9 -52 -10 -60 -1 -8 -6 -35 -10
-60 -4 -25 -9 -54 -12 -65 -2 -11 -6 -36 -8 -55 -2 -19 -6 -46 -9 -60 -3 -13
-9 -42 -12 -65 -4 -22 -8 -49 -10 -60 -2 -11 -5 -33 -8 -50 -6 -38 -15 -91
-23 -130 -3 -16 -7 -43 -8 -60 -2 -16 -4 -30 -5 -30 -1 0 -3 -11 -5 -25 -7
-58 -22 -143 -25 -147 -2 -2 -4 -16 -5 -33 -1 -16 -3 -31 -5 -32 -3 -4 -9 -38
-16 -93 -3 -27 -8 -53 -10 -57 -3 -4 -7 -27 -9 -50 -2 -24 -6 -54 -9 -68 -5
-22 -13 -70 -22 -125 -4 -31 -15 -95 -20 -119 -2 -11 -7 -43 -10 -71 -4 -27
-8 -53 -10 -56 -2 -4 -6 -24 -9 -45 -3 -22 -7 -48 -9 -59 -2 -11 -7 -40 -11
-65 -4 -25 -9 -54 -11 -65 -3 -11 -7 -36 -10 -55 -3 -19 -10 -62 -16 -95 -5
-33 -11 -69 -13 -80 -1 -11 -5 -33 -8 -50 -8 -37 -18 -102 -22 -135 -1 -14 -6
-41 -10 -60 -4 -19 -9 -46 -11 -60 -1 -14 -8 -54 -14 -90 -7 -36 -13 -76 -15
-90 -2 -14 -6 -40 -9 -57 -11 -60 -18 -98 -22 -125 -4 -28 -7 -47 -19 -123 -3
-22 -8 -47 -10 -55 -2 -8 -7 -35 -10 -60 -3 -25 -9 -58 -12 -75 -3 -16 -7 -39
-8 -50 -4 -27 -24 -144 -30 -177 -3 -16 -7 -40 -10 -55 -2 -16 -7 -39 -9 -53
-3 -14 -8 -43 -11 -65 -6 -41 -17 -109 -36 -217 -6 -35 -13 -76 -15 -93 -2
-16 -6 -41 -9 -55 -3 -14 -8 -38 -9 -55 -2 -16 -6 -41 -9 -55 -8 -31 -18 -95
-22 -135 -2 -16 -4 -30 -5 -30 -1 0 -3 -11 -5 -25 -1 -14 -5 -40 -9 -57 -10
-53 -17 -96 -22 -128 -2 -16 -6 -41 -9 -55 -2 -13 -7 -40 -10 -60 -3 -20 -8
-47 -11 -60 -3 -14 -7 -41 -9 -60 -2 -19 -4 -35 -5 -35 -1 0 -3 -11 -5 -25 -4
-36 -15 -102 -20 -120 -5 -17 -18 -109 -18 -127 0 -7 -3 -13 -6 -13 -3 0 -6
-10 -7 -22 -1 -34 -15 -125 -29 -198 -6 -26 -8 -42 -21 -125 -4 -27 -9 -57
-11 -65 -1 -8 -5 -28 -8 -45 -2 -16 -7 -41 -10 -55 -3 -14 -7 -45 -9 -70 -3
-25 -7 -52 -10 -60 -3 -8 -7 -31 -10 -50 -3 -19 -8 -46 -11 -60 -3 -14 -7 -43
-10 -65 -2 -22 -7 -51 -10 -65 -3 -14 -8 -41 -10 -60 -2 -19 -4 -35 -5 -35 -3
0 -20 -101 -25 -150 -2 -16 -4 -30 -5 -30 -1 0 -3 -11 -5 -25 -1 -14 -6 -41
-9 -60 -4 -19 -9 -47 -11 -62 -3 -16 -8 -43 -11 -60 -3 -18 -7 -44 -9 -58 -9
-59 -16 -106 -20 -120 -2 -8 -7 -37 -11 -65 -3 -27 -8 -52 -9 -55 -2 -3 -7
-33 -10 -65 -4 -33 -10 -64 -12 -68 -3 -5 -7 -25 -9 -45 -2 -20 -6 -48 -9 -62
-2 -14 -7 -41 -10 -60 -3 -19 -8 -47 -11 -63 l-6 -27 1341 0 1340 0 46 83 c25
45 50 89 55 97 6 8 53 92 106 185 54 94 105 184 115 200 11 17 22 37 26 45 4
8 47 84 95 169 48 84 88 156 88 159 0 3 6 13 14 21 7 9 29 45 48 81 20 36 113
199 207 364 94 164 171 301 171 304 0 3 6 13 14 21 8 9 26 39 40 66 15 28 31
57 36 65 5 8 32 56 60 105 28 50 55 97 60 105 6 8 18 31 28 50 9 19 23 41 30
48 6 7 12 20 12 28 0 8 4 14 9 14 5 0 13 10 17 23 4 12 9 24 13 27 6 5 22 33
63 110 10 19 23 42 28 50 5 8 70 121 144 250 73 129 143 251 155 270 11 19 26
47 32 63 6 15 15 27 20 27 5 0 8 3 7 8 -1 4 5 18 13 32 30 48 99 169 99 173 0
3 18 35 40 71 22 36 40 69 40 73 0 3 6 14 14 22 8 9 26 39 41 66 29 56 61 113
93 165 12 19 29 51 38 70 10 19 23 42 29 50 7 8 26 40 42 70 16 30 74 132 128
225 54 94 110 191 124 217 14 25 46 82 71 125 25 43 48 85 53 93 4 8 18 33 32
55 14 22 30 51 36 65 6 14 18 33 26 42 9 10 12 18 7 18 -5 0 -4 4 1 8 6 4 22
28 35 55 14 26 28 47 32 47 5 0 8 6 8 13 1 6 19 41 40 77 44 71 44 71 24 -45
-8 -53 -12 -78 -20 -150 -3 -33 -8 -63 -10 -66 -1 -3 -6 -28 -9 -55 -9 -76
-21 -157 -31 -219 -3 -16 -7 -48 -10 -70 -2 -22 -6 -51 -9 -65 -3 -14 -7 -49
-11 -78 -3 -29 -7 -63 -10 -75 -6 -27 -14 -90 -19 -137 -2 -19 -4 -35 -5 -35
-1 0 -3 -16 -5 -35 -2 -19 -4 -35 -5 -35 -1 0 -3 -13 -5 -30 -9 -65 -15 -111
-19 -130 -2 -11 -7 -42 -10 -70 -11 -88 -18 -139 -23 -160 -2 -11 -6 -33 -7
-50 -2 -16 -7 -57 -11 -90 -4 -33 -9 -62 -10 -65 -2 -3 -6 -30 -10 -60 -3 -30
-8 -66 -10 -80 -2 -14 -11 -74 -20 -135 -9 -60 -18 -128 -22 -150 -8 -52 -8
-59 -18 -130 -4 -33 -9 -69 -11 -80 -10 -54 -17 -103 -19 -135 -2 -19 -4 -35
-5 -35 -2 0 -3 -10 -14 -94 -3 -24 -8 -62 -12 -85 -4 -23 -8 -54 -11 -71 -2
-16 -6 -43 -8 -60 -3 -16 -7 -46 -9 -65 -2 -19 -7 -48 -10 -65 -3 -16 -8 -52
-11 -80 -4 -27 -9 -63 -12 -80 -8 -49 -12 -77 -18 -130 -3 -27 -7 -61 -10 -75
-10 -68 -16 -108 -20 -135 -12 -92 -17 -122 -21 -145 -3 -14 -7 -47 -9 -73 -3
-27 -8 -53 -11 -59 -3 -5 -8 -29 -9 -51 -3 -40 -6 -62 -19 -154 -3 -24 -8 -60
-11 -81 -3 -21 -7 -49 -10 -62 -2 -13 -7 -44 -10 -69 -3 -25 -7 -55 -9 -66 -2
-11 -7 -45 -11 -75 -3 -30 -9 -68 -11 -85 -3 -16 -7 -41 -9 -55 -5 -38 -17
-123 -21 -142 -1 -9 -5 -38 -9 -65 -4 -26 -8 -59 -10 -73 -10 -67 -16 -118
-20 -145 -1 -16 -5 -37 -7 -45 -3 -13 152 -15 1340 -18 l1343 -2 20 47 c12 27
36 84 54 128 18 44 43 103 56 130 13 28 24 55 25 60 1 6 11 31 22 56 11 25 22
51 24 59 2 8 5 17 8 20 3 3 16 32 29 65 13 33 33 80 44 105 12 25 22 47 22 50
4 13 19 49 41 98 13 29 24 55 24 58 0 3 10 26 21 52 12 25 22 51 23 58 1 7 8
19 14 27 7 9 14 25 15 36 1 12 5 21 9 21 4 0 8 7 8 15 0 8 4 23 10 33 10 19
53 114 54 122 3 13 50 126 56 135 4 6 11 21 15 35 4 14 18 48 30 75 13 28 30
67 39 88 9 20 22 52 30 70 17 39 26 65 25 73 0 4 4 10 10 14 6 3 13 15 15 26
3 16 19 53 66 159 54 120 156 364 160 380 1 6 5 15 10 20 11 14 102 233 100
241 -1 4 2 10 7 13 4 3 19 33 32 66 14 33 29 63 35 67 6 4 8 8 4 8 -5 0 61
161 126 305 8 17 26 59 41 95 15 36 36 85 47 110 11 25 25 59 33 75 7 17 20
46 28 65 52 115 158 358 162 370 1 3 12 28 24 55 24 53 38 85 40 97 1 4 16 36
33 70 17 35 31 69 31 76 0 6 4 12 9 12 4 0 8 5 8 10 0 6 33 85 72 176 l73 165
58 -3 c31 -2 57 -1 57 2 0 7 250 4 257 -3 3 -3 11 -3 19 0 12 5 -1 -35 -51
-152 -7 -16 -25 -59 -40 -95 -15 -36 -33 -79 -41 -97 -8 -17 -14 -34 -14 -37
0 -3 -11 -29 -24 -58 -54 -121 -109 -254 -109 -265 0 -7 -4 -13 -9 -13 -4 0
-7 -3 -6 -7 1 -5 -6 -25 -15 -47 -9 -21 -17 -40 -17 -42 0 -2 -9 -23 -19 -47
-23 -49 -175 -410 -201 -477 -10 -25 -29 -70 -43 -100 -13 -30 -35 -83 -48
-117 -13 -35 -28 -63 -32 -63 -5 0 -5 -5 -2 -10 4 -6 2 -16 -3 -23 -6 -7 -19
-34 -30 -62 -28 -70 -180 -434 -197 -472 -8 -17 -15 -34 -15 -37 0 -3 -11 -29
-24 -58 -14 -29 -28 -66 -31 -81 -4 -15 -11 -27 -16 -27 -5 0 -9 -11 -9 -25 0
-14 -4 -25 -10 -25 -5 0 -10 -6 -10 -13 0 -13 -37 -103 -114 -279 -9 -20 -16
-39 -16 -42 0 -3 -14 -35 -30 -71 -16 -36 -30 -68 -30 -71 0 -2 -7 -21 -17
-42 -9 -20 -17 -39 -18 -42 0 -3 -11 -27 -23 -54 -12 -27 -22 -52 -22 -56 0
-4 -6 -20 -14 -36 -8 -16 -44 -101 -81 -189 -36 -88 -74 -178 -83 -200 -9 -22
-16 -43 -14 -47 1 -5 -2 -8 -8 -8 -5 0 -10 -4 -10 -9 0 -5 -5 -22 -12 -38 -6
-15 -12 -30 -13 -33 -5 -15 -27 -68 -35 -85 -25 -52 -260 -619 -260 -626 0 -5
436 -9 969 -9 l969 0 22 52 c12 29 28 67 35 83 36 81 49 111 51 120 6 28 17
55 23 55 4 0 8 6 8 13 1 11 95 237 136 327 27 59 109 254 111 265 1 6 12 30
23 55 36 80 46 105 49 119 1 8 6 17 11 20 4 3 9 13 10 22 2 8 28 73 59 145 60
138 70 163 74 179 1 6 11 27 21 47 11 21 16 38 12 38 -5 0 -3 4 2 8 6 4 21 34
34 67 13 33 33 80 44 105 30 72 35 83 48 123 7 20 17 37 21 37 4 0 7 3 6 8 -1
4 6 24 15 46 9 21 17 41 17 43 0 5 13 37 54 126 14 32 26 60 26 63 0 3 6 20
14 37 49 109 83 197 78 201 -3 3 0 6 6 6 7 0 12 7 12 16 0 9 6 28 14 42 8 15
28 61 44 102 17 41 60 147 97 235 37 88 72 171 78 185 6 14 10 28 9 33 -1 4 3
7 10 7 6 0 9 3 6 6 -3 3 10 42 29 87 42 101 45 108 76 179 14 31 23 59 19 62
-3 3 0 6 6 6 7 0 12 5 12 12 0 11 134 339 149 363 3 6 6 15 6 20 1 6 12 33 25
60 13 28 24 55 26 60 1 6 10 28 19 50 9 22 32 78 52 125 19 47 43 103 53 125
10 22 32 77 50 123 l33 82 41 1 c23 1 46 0 51 -1 23 -5 75 -5 75 0 0 3 57 4
127 2 71 -1 133 -3 138 -3 6 0 33 0 60 1 28 0 74 0 103 -2 28 -2 52 -1 52 2 0
3 53 4 117 3 126 -3 155 -3 218 -2 22 0 45 0 50 -1 6 -1 14 -2 18 -1 29 5 197
2 206 -3 6 -4 11 -4 11 1 0 9 282 8 305 -1 21 -8 25 -1 90 159 5 11 9 23 9 27
1 3 4 10 9 14 4 4 7 16 7 26 0 10 5 18 10 18 6 0 9 3 8 8 -1 4 11 41 27 82 16
41 28 78 27 83 -1 4 2 7 8 7 6 0 9 3 8 8 -1 4 6 24 15 46 9 21 17 42 17 47 0
5 4 17 10 27 5 9 23 53 41 97 17 44 40 99 50 122 10 24 19 47 19 51 0 5 8 24
17 43 10 19 18 41 20 49 1 8 6 23 12 35 5 11 20 45 31 75 32 80 36 91 53 130
8 19 23 58 32 85 10 28 21 55 25 60 4 6 22 51 40 100 18 50 38 96 43 102 6 9
4 15 -7 19 -9 4 -19 4 -22 1 -3 -2 -21 -1 -40 3 -18 4 -34 5 -34 1 0 -8 -173
-6 -187 2 -6 4 -13 4 -17 0 -9 -9 -206 -9 -206 0 0 4 -8 4 -17 -1 -10 -4 -52
-7 -93 -5 -41 2 -79 3 -85 4 -5 0 -36 -2 -67 -3 -32 -2 -58 0 -58 5 0 4 -8 4
-17 -1 -10 -4 -52 -7 -93 -5 -92 4 -82 4 -155 0 -33 -1 -75 0 -92 4 -18 4 -33
4 -33 0 0 -8 -78 -6 -87 2 -3 4 -13 3 -22 -1 -9 -5 -50 -7 -91 -5 -92 4 -82 4
-155 0 -33 -1 -75 0 -92 4 -18 4 -33 4 -33 0 0 -7 -126 -5 -146 3 -8 3 -14 2
-14 -2 0 -8 -78 -7 -87 1 -3 4 -13 3 -22 -1 -9 -5 -50 -7 -91 -5 -92 4 -82 4
-155 0 -33 -1 -75 0 -92 4 -18 4 -33 4 -33 0 0 -3 -20 -6 -45 -6 -25 0 -45 4
-45 8 0 4 -8 4 -17 -1 -10 -4 -52 -7 -93 -5 -41 2 -79 3 -85 4 -5 0 -36 -2
-67 -3 -32 -2 -58 0 -58 5 0 4 -8 4 -17 -1 -10 -4 -52 -7 -93 -5 -89 4 -70 4
-198 1 -57 -2 -106 0 -109 5 -2 4 -9 4 -16 0 -14 -8 -252 -7 -266 2 -6 3 -11
3 -11 -2 0 -9 -72 -9 -87 0 -5 3 -15 2 -22 -3 -13 -7 -93 -4 -118 5 -7 2 -13
1 -13 -3 0 -9 -143 -8 -158 2 -8 5 -6 16 6 39 10 18 28 59 41 92 14 33 29 63
35 67 6 4 7 8 3 8 -5 0 -2 12 6 28 8 15 21 43 30 62 72 160 87 195 87 206 0 8
5 14 10 14 6 0 10 7 10 16 0 9 7 28 15 42 12 23 45 96 50 112 0 3 11 25 22 50
12 25 45 99 73 165 29 66 61 140 72 165 50 115 43 99 103 240 15 36 36 85 47
110 12 25 24 54 29 65 17 43 101 241 109 260 12 25 27 67 29 78 0 4 9 22 18
40 10 17 18 37 19 42 1 9 22 63 44 110 18 39 91 234 198 525 9 25 17 50 18 57
2 13 41 136 51 163 8 19 13 41 15 63 1 9 5 17 9 17 4 0 6 6 6 13 -1 6 8 55 21
107 12 52 24 110 27 127 10 63 21 148 20 168 0 11 5 23 10 27 7 5 7 8 0 8 -6
0 -10 27 -10 63 1 34 -3 78 -7 97 -4 19 -11 51 -14 70 -9 59 -74 177 -123 227
-52 52 -88 83 -97 83 -3 0 -19 9 -35 21 -16 11 -35 22 -42 23 -7 1 -18 5 -24
9 -45 28 -223 69 -358 83 -33 3 -76 8 -95 10 -19 3 -211 8 -425 11 l-391 6
-43 -109 c-23 -60 -46 -118 -51 -129 -5 -11 -21 -49 -35 -85 -14 -36 -30 -74
-35 -85 -5 -11 -61 -153 -125 -315 -64 -162 -120 -304 -125 -315 -5 -11 -21
-49 -35 -85 -14 -36 -30 -74 -35 -85 -35 -80 -85 -211 -82 -217 1 -5 -3 -8
-10 -8 -6 0 -9 -3 -6 -6 5 -5 -13 -53 -64 -174 -6 -14 -12 -29 -14 -35 -2 -10
-106 -271 -123 -310 -9 -20 -31 -75 -52 -130 -7 -16 -12 -33 -11 -37 1 -5 -2
-8 -6 -8 -5 0 -9 -6 -9 -12 0 -7 -49 -132 -108 -278 -59 -146 -108 -269 -109
-275 -1 -5 -12 -31 -24 -57 -12 -26 -22 -54 -22 -62 0 -9 -4 -16 -8 -16 -5 0
-9 -6 -9 -12 -1 -7 -47 -125 -103 -263 -56 -137 -107 -266 -113 -285 -6 -19
-15 -38 -20 -41 -5 -3 -8 -9 -7 -13 1 -4 -4 -21 -11 -39 -6 -18 -13 -34 -13
-37 -1 -3 -8 -16 -16 -30 -7 -14 -13 -27 -13 -30 0 -3 -4 -16 -10 -30 -6 -14
-11 -27 -11 -30 -2 -13 -229 -578 -242 -601 -7 -14 -11 -29 -7 -33 3 -3 0 -6
-7 -6 -7 0 -11 -3 -8 -6 4 -3 -3 -27 -14 -52 -10 -26 -23 -56 -28 -67 -4 -11
-22 -54 -39 -96 -17 -42 -36 -90 -42 -105 -7 -16 -13 -31 -14 -34 -5 -21 -21
-63 -40 -105 -26 -60 -37 -87 -40 -100 -4 -17 -66 -169 -81 -196 -7 -14 -11
-29 -7 -33 3 -3 2 -6 -4 -6 -5 0 -10 -6 -10 -12 -1 -11 -88 -230 -126 -318 -6
-14 -11 -30 -12 -36 0 -6 -6 -22 -12 -35 -20 -39 -64 -145 -69 -164 -2 -8
-109 -274 -147 -365 -5 -14 -12 -33 -14 -43 -2 -11 -10 -28 -18 -40 -8 -12
-15 -27 -15 -33 0 -6 -10 -33 -22 -60 -12 -27 -22 -51 -23 -54 0 -3 -8 -24
-17 -45 -32 -76 -68 -172 -68 -183 0 -7 -5 -12 -10 -12 -6 0 -9 -3 -9 -7 1 -5
0 -11 -1 -15 -1 -5 -3 -11 -5 -15 -1 -5 -7 -21 -13 -36 -7 -16 -22 -52 -33
-80 -12 -29 -27 -65 -34 -82 -24 -60 -40 -100 -40 -105 0 -3 -6 -15 -13 -27
-7 -13 -10 -23 -6 -23 3 0 0 -7 -7 -16 -7 -9 -14 -22 -15 -29 -1 -7 -7 -21
-13 -32 -8 -14 -9 -5 -6 37 2 30 5 55 5 55 1 0 3 14 4 30 9 90 17 163 20 185
5 29 16 125 22 190 2 25 6 59 8 75 3 17 8 62 12 100 3 39 8 79 10 90 2 11 6
49 9 86 3 36 7 74 9 85 4 20 14 108 21 184 2 25 7 61 9 80 3 19 8 62 11 95 3
33 8 71 10 85 2 14 7 57 10 95 10 99 12 112 20 185 13 113 14 124 20 185 2 33
7 78 11 100 3 22 7 58 10 80 3 38 6 59 18 170 3 28 8 70 11 95 9 87 14 136 21
190 4 30 8 72 8 92 1 21 3 38 6 38 3 0 6 17 7 38 1 20 3 55 6 77 3 22 8 74 12
115 3 41 8 88 11 103 6 27 8 47 19 162 3 33 7 74 9 90 4 27 24 203 31 265 2
22 11 95 21 180 1 14 5 52 8 85 4 33 8 76 11 95 2 19 7 60 10 90 4 30 8 66 10
80 3 25 17 158 20 195 1 11 3 22 4 25 1 3 4 25 6 50 2 25 6 68 9 95 3 28 9 75
12 105 3 30 7 66 9 80 3 22 11 91 20 185 5 42 16 144 21 180 2 17 5 50 8 75 2
25 7 68 10 95 4 28 9 73 12 100 2 28 6 66 9 85 2 19 7 60 10 90 3 30 8 71 10
90 3 19 7 62 10 95 3 33 8 71 10 85 2 14 7 54 10 90 4 36 9 81 10 100 7 69 16
145 21 170 2 14 7 59 10 100 l6 75 -513 -2 c-283 -1 -522 -2 -531 -2 -11 -1
-50 -50 -105 -133 -49 -73 -94 -139 -100 -146 -7 -7 -13 -17 -13 -22 0 -5 -6
-15 -13 -22 -12 -13 -48 -64 -57 -83 -7 -15 -104 -159 -111 -165 -3 -3 -16
-23 -29 -45 -13 -22 -26 -42 -30 -45 -3 -3 -19 -25 -35 -50 -30 -46 -33 -50
-72 -111 -12 -19 -25 -38 -30 -44 -4 -5 -42 -62 -83 -125 -41 -63 -80 -121
-87 -128 -6 -6 -15 -21 -18 -32 -3 -11 -10 -20 -14 -20 -5 0 -14 -13 -21 -30
-7 -16 -16 -30 -20 -30 -4 0 -13 -13 -20 -30 -7 -16 -16 -30 -20 -30 -4 0 -12
-10 -19 -22 -25 -47 -89 -146 -108 -166 -6 -6 -15 -21 -18 -32 -3 -11 -10 -20
-14 -20 -5 0 -14 -13 -21 -30 -7 -16 -16 -30 -20 -30 -4 0 -13 -13 -20 -30 -7
-16 -16 -30 -20 -30 -4 0 -13 -13 -20 -30 -7 -16 -16 -30 -21 -30 -4 0 -11 -9
-14 -20 -3 -11 -12 -26 -18 -32 -7 -7 -37 -51 -67 -98 -30 -47 -61 -91 -67
-98 -7 -7 -13 -17 -13 -22 0 -5 -6 -15 -12 -22 -12 -12 -120 -171 -143 -210
-5 -9 -41 -63 -80 -120 -38 -57 -74 -110 -80 -120 -19 -32 -154 -233 -163
-244 -5 -5 -15 -21 -22 -35 -7 -13 -16 -26 -19 -29 -9 -7 -111 -160 -111 -166
0 -3 -18 -29 -40 -59 -22 -30 -40 -56 -40 -59 0 -2 -18 -30 -41 -62 -22 -33
-49 -72 -59 -89 -10 -16 -23 -34 -27 -40 -5 -5 -23 -32 -40 -60 -18 -27 -37
-55 -43 -62 -5 -7 -15 -24 -22 -38 -6 -14 -14 -25 -18 -25 -4 0 -12 -11 -18
-25 -7 -14 -17 -31 -23 -38 -6 -7 -46 -66 -89 -132 -43 -66 -83 -125 -88 -131
-5 -5 -15 -21 -22 -35 -7 -13 -16 -26 -19 -29 -6 -5 -117 -170 -136 -202 -5
-10 -37 -57 -70 -105 -33 -48 -64 -95 -70 -104 -35 -56 -55 -86 -64 -96 -6 -7
-16 -24 -23 -38 -6 -14 -14 -25 -18 -25 -4 0 -13 -13 -20 -30 -7 -16 -16 -30
-21 -30 -5 0 -9 -7 -9 -15 0 -8 -4 -15 -9 -15 -5 0 -14 -13 -21 -30 -7 -17
-16 -30 -21 -30 -4 0 -11 -9 -14 -20 -3 -11 -12 -26 -18 -32 -21 -23 -97 -138
-97 -148 0 -6 -4 -10 -10 -10 -5 0 -10 -7 -10 -15 0 -9 -7 -18 -15 -21 -8 -4
-15 -12 -15 -19 0 -6 -9 -22 -20 -35 -11 -13 -20 -27 -20 -31 0 -4 -6 -14 -12
-21 -15 -15 -131 -187 -137 -202 -2 -6 -8 -15 -13 -21 -23 -26 -148 -217 -148
-225 0 -4 -3 -10 -7 -12 -8 -3 -145 -204 -152 -223 -2 -5 -7 -12 -11 -15 -3
-3 -17 -23 -30 -45 -13 -22 -27 -42 -30 -45 -11 -10 -165 -245 -168 -257 -2
-7 -7 -13 -11 -13 -4 0 -13 -10 -20 -22 -11 -23 -17 -31 -76 -119 -16 -24 -34
-52 -40 -61 -10 -16 -125 -189 -132 -197 -11 -14 -8 12 7 59 10 30 30 96 45
145 15 50 38 126 52 170 14 44 27 87 28 95 1 8 5 22 8 30 3 8 7 24 9 35 2 11
5 22 9 25 3 3 15 41 28 85 12 44 29 103 37 130 8 28 16 55 18 60 2 6 5 17 8
25 6 17 47 156 53 180 2 8 16 53 30 100 44 141 65 212 84 281 10 37 21 71 24
76 3 5 8 20 11 34 4 19 52 184 72 247 2 7 4 14 4 17 0 3 7 22 15 44 7 22 11
42 8 45 -4 3 -2 6 4 6 5 0 10 6 10 13 0 10 38 138 76 257 6 19 12 40 13 46 3
17 91 308 101 334 4 8 7 22 8 30 1 8 7 28 13 43 7 16 12 34 12 40 0 7 9 37 20
67 11 30 22 65 24 77 3 12 16 59 30 105 14 46 25 86 26 90 0 4 8 27 16 50 9
24 17 50 19 58 4 20 53 187 65 220 14 40 52 169 50 172 0 2 8 29 19 61 11 31
17 57 14 57 -3 0 -1 6 4 13 5 6 18 44 28 82 10 39 23 79 29 90 5 11 9 23 8 27
-1 4 3 20 9 35 6 15 12 35 14 43 8 37 44 161 50 170 3 5 8 18 10 27 5 25 85
295 92 313 8 19 14 41 17 60 1 9 4 20 8 25 4 8 9 25 23 75 0 3 9 31 18 62 10
32 17 59 17 60 0 2 8 29 19 61 11 31 17 57 14 57 -3 0 -1 6 5 13 6 6 10 14 11
17 0 3 2 12 4 20 3 8 19 65 37 125 32 111 36 126 39 135 11 31 83 271 87 288
2 13 12 44 21 70 8 26 16 52 18 57 1 6 12 44 25 85 13 41 24 77 25 80 1 3 5
21 9 40 5 19 12 40 16 45 5 6 8 12 8 15 0 11 15 68 29 110 8 25 16 52 18 60 2
8 18 60 35 115 17 55 33 109 35 120 3 12 13 45 23 75 11 30 19 57 20 60 2 16
16 67 21 75 3 6 6 15 7 22 2 13 22 78 31 103 3 8 7 22 8 30 1 8 10 38 19 65
10 28 20 58 22 68 8 33 13 52 44 152 17 55 41 137 54 181 13 45 27 87 30 93 5
8 -368 11 -1368 11 -757 0 -1376 -3 -1377 -7z m8526 -318 c138 -3 273 -7 300
-10 28 -3 70 -7 95 -9 25 -2 52 -6 60 -9 8 -3 42 -10 74 -17 33 -7 79 -20 102
-30 65 -28 124 -81 124 -112 0 -10 4 -18 8 -18 10 0 11 -2 16 -115 3 -77 -6
-165 -27 -275 -14 -71 -83 -315 -104 -370 -4 -8 -7 -17 -8 -20 -7 -30 -84
-246 -105 -295 -4 -11 -32 -81 -60 -155 -29 -74 -58 -148 -65 -165 -13 -31
-27 -66 -30 -75 -1 -3 -9 -22 -18 -44 -9 -21 -17 -45 -17 -52 0 -8 -4 -14 -10
-14 -5 0 -10 -6 -10 -14 0 -7 -10 -35 -22 -62 -12 -27 -23 -51 -23 -54 -2 -7
-21 -51 -45 -108 -12 -26 -25 -56 -30 -67 -4 -11 -20 -46 -34 -78 -14 -32 -26
-60 -26 -63 0 -3 -10 -26 -22 -52 -12 -26 -23 -49 -23 -52 -3 -9 -18 -45 -41
-98 -13 -29 -36 -80 -50 -115 -28 -65 -48 -111 -95 -215 -16 -34 -29 -64 -29
-66 0 -3 -16 -40 -36 -83 -20 -43 -43 -94 -51 -113 -8 -19 -23 -53 -33 -75
-19 -42 -35 -79 -70 -160 -12 -27 -34 -75 -47 -105 -26 -55 -56 -124 -76 -170
-5 -14 -10 -28 -9 -32 1 -5 -3 -8 -8 -8 -6 0 -10 -6 -10 -13 0 -18 -29 -77
-38 -78 -55 -4 -122 -2 -122 4 0 4 -8 4 -17 -1 -10 -4 -52 -7 -93 -5 -41 2
-79 3 -85 4 -5 0 -36 -2 -67 -3 -32 -2 -58 0 -58 5 0 4 -8 4 -17 -1 -10 -5
-40 -7 -68 -5 l-50 3 -24 -62 c-14 -35 -34 -83 -45 -108 -11 -25 -21 -49 -22
-55 -1 -5 -26 -66 -54 -135 -28 -69 -53 -129 -54 -135 -4 -16 -25 -67 -41
-100 -7 -16 -11 -33 -9 -37 3 -4 0 -8 -7 -8 -7 0 -9 -3 -6 -6 4 -4 -1 -21 -10
-38 -30 -59 -35 -68 -38 -85 -3 -14 -113 -293 -149 -376 -18 -43 -61 -149 -61
-155 -1 -3 -9 -22 -18 -44 -9 -21 -17 -40 -17 -43 0 -2 -7 -20 -16 -41 -31
-69 -35 -98 -14 -93 8 2 122 4 252 5 211 1 238 -1 238 -15 0 -9 -3 -18 -6 -22
-11 -11 -72 -157 -65 -157 3 0 1 -4 -5 -8 -6 -4 -25 -42 -42 -84 -29 -70 -67
-155 -110 -248 -9 -19 -17 -39 -18 -45 -2 -9 -25 -61 -79 -180 -20 -45 -77
-175 -80 -185 -1 -3 -12 -27 -24 -55 -106 -239 -264 -610 -264 -621 0 -8 -3
-14 -7 -14 -4 0 -31 -57 -60 -128 -28 -70 -56 -131 -61 -136 -5 -6 -9 -18 -9
-28 0 -10 -5 -18 -12 -18 -6 0 -9 -2 -6 -6 3 -3 -27 -80 -66 -172 -83 -190
-89 -205 -90 -212 -1 -3 -9 -21 -18 -40 -32 -70 -58 -129 -58 -134 0 -5 -17
-44 -65 -151 -7 -16 -17 -42 -20 -58 -4 -15 -11 -27 -16 -27 -5 0 -9 -6 -9
-13 0 -7 -22 -65 -50 -128 -27 -62 -50 -120 -50 -126 0 -7 -5 -13 -10 -13 -6
0 -9 -3 -8 -7 1 -5 -5 -21 -12 -38 -7 -16 -14 -34 -16 -40 -2 -11 -115 -278
-145 -342 -10 -24 -19 -45 -19 -47 0 -2 -8 -21 -17 -42 -9 -22 -16 -42 -15
-46 1 -5 -2 -8 -8 -8 -5 0 -10 -8 -10 -18 0 -10 -5 -23 -12 -30 -7 -7 -9 -12
-4 -12 4 0 0 -12 -8 -27 -13 -23 -32 -65 -41 -93 -1 -3 -6 -14 -10 -25 -5 -11
-32 -76 -61 -145 l-53 -125 -1053 0 c-696 0 -1053 3 -1052 10 1 6 4 28 7 50 3
22 10 69 16 105 5 36 13 92 17 125 3 33 8 63 10 66 2 3 6 30 9 60 7 60 14 106
20 129 3 15 15 104 20 165 2 17 4 30 5 30 1 0 3 11 5 25 2 14 6 45 10 70 4 25
8 56 10 70 1 14 8 59 14 100 6 41 13 91 16 110 2 19 7 51 10 70 3 19 8 51 10
70 2 19 6 51 10 70 3 19 8 49 9 65 2 17 6 48 10 70 3 22 8 59 11 83 3 24 7 53
10 65 2 12 7 45 10 72 4 28 8 61 11 75 2 14 6 47 9 73 3 27 7 53 11 58 3 5 7
33 9 62 2 28 6 66 9 82 2 17 7 46 10 65 14 100 28 198 32 220 2 14 11 77 19
140 9 63 18 126 21 140 2 14 6 45 10 70 3 25 10 74 15 110 6 36 12 80 15 99 2
19 7 48 9 64 3 16 8 52 11 81 7 59 12 91 14 91 1 0 3 11 4 25 5 58 19 147 27
167 5 13 4 25 -2 29 -6 3 -6 10 -1 17 5 7 9 19 10 27 0 8 3 31 7 50 4 19 8 51
10 70 2 19 6 46 8 60 3 14 8 50 11 80 4 30 9 67 11 81 3 14 7 43 10 64 8 63
15 116 30 210 8 50 15 105 17 123 1 18 5 32 8 32 3 0 5 14 4 31 0 18 3 52 7
76 5 24 11 65 15 91 3 26 8 61 10 77 10 65 14 91 18 125 10 67 17 115 21 140
5 23 13 81 20 140 6 50 17 126 21 150 2 14 6 40 9 58 3 17 8 49 11 70 3 20 8
55 10 77 3 22 7 54 9 70 3 17 6 46 9 66 2 19 7 45 10 57 6 17 1 24 -23 37 -17
8 -32 15 -33 15 -4 -2 -16 2 -133 43 -109 37 -106 38 -140 -25 -21 -38 -136
-240 -168 -293 -10 -16 -23 -42 -30 -57 -6 -16 -15 -28 -19 -28 -4 0 -8 -4 -8
-9 0 -8 -115 -214 -140 -251 -6 -8 -13 -22 -17 -30 -4 -8 -23 -42 -42 -75 -68
-116 -82 -140 -94 -167 -6 -16 -15 -28 -19 -28 -4 0 -8 -4 -8 -8 0 -5 -91
-168 -203 -363 -112 -195 -206 -361 -210 -369 -5 -8 -13 -24 -20 -35 -7 -11
-48 -83 -91 -160 -44 -77 -84 -143 -89 -146 -5 -3 -9 -10 -9 -15 0 -9 -32 -67
-72 -134 -12 -19 -28 -48 -36 -65 -8 -16 -17 -32 -20 -35 -14 -12 -60 -100
-53 -100 4 0 3 -4 -3 -8 -6 -4 -27 -34 -45 -67 -19 -33 -42 -73 -52 -90 -10
-16 -23 -42 -30 -57 -6 -16 -15 -28 -19 -28 -4 0 -8 -4 -8 -9 0 -5 -23 -47
-50 -94 -27 -47 -50 -88 -50 -93 0 -4 -6 -15 -14 -23 -13 -16 -48 -76 -90
-156 -12 -22 -23 -42 -26 -45 -3 -3 -12 -18 -20 -35 -8 -16 -17 -32 -21 -35
-9 -9 -109 -192 -109 -201 0 -5 -4 -9 -9 -9 -5 0 -11 -8 -14 -18 -4 -9 -22
-44 -42 -77 -20 -33 -41 -71 -48 -85 -6 -14 -14 -27 -18 -30 -3 -3 -19 -30
-35 -60 -16 -30 -42 -77 -59 -105 -17 -27 -37 -63 -45 -80 -8 -16 -18 -32 -21
-35 -4 -3 -17 -25 -29 -50 -12 -25 -25 -47 -29 -50 -3 -3 -16 -25 -29 -50 -13
-25 -32 -61 -44 -80 -39 -67 -256 -445 -281 -490 -7 -14 -59 -105 -115 -202
-56 -98 -102 -182 -102 -188 0 -5 -4 -10 -8 -10 -5 0 -19 -22 -32 -50 -13 -27
-26 -50 -30 -50 -3 0 -12 -16 -19 -35 -7 -19 -17 -35 -22 -35 -5 0 -9 -9 -9
-20 0 -10 -6 -23 -12 -27 -7 -4 -22 -26 -33 -48 -34 -66 -79 -148 -88 -160 -5
-5 -18 -28 -31 -50 l-22 -40 -1058 -3 -1059 -2 8 42 c4 24 8 54 10 68 1 14 7
51 14 82 7 32 10 62 6 68 -3 5 -2 10 3 10 5 0 9 6 9 13 1 19 12 99 18 127 7
34 26 150 30 180 2 14 6 40 9 58 3 17 8 47 11 65 3 17 8 43 10 57 3 14 8 43
10 65 3 22 7 47 10 55 3 8 7 33 10 55 12 77 19 119 30 175 3 19 8 49 9 65 2
17 6 44 10 60 3 17 8 44 11 60 2 17 11 68 19 115 8 47 17 101 20 120 3 19 8
46 11 60 3 14 7 44 9 66 2 23 6 46 9 50 3 5 8 35 11 66 3 31 8 63 11 70 4 12
10 49 21 121 9 60 13 83 18 107 3 14 8 47 12 75 3 27 7 52 10 56 2 4 7 28 9
52 3 25 8 56 10 68 6 28 25 142 30 179 2 14 6 41 10 60 3 19 8 46 10 60 2 14
11 66 20 115 9 50 18 104 20 120 2 17 7 41 10 55 3 14 8 43 10 65 3 22 7 51
10 65 10 50 15 75 20 115 3 22 8 47 10 55 2 8 7 35 10 60 3 25 10 68 15 95 5
28 12 68 15 90 3 23 7 52 10 65 3 13 7 42 10 65 3 22 8 48 11 57 3 9 6 32 8
50 2 19 6 43 9 54 3 10 8 39 11 64 3 25 8 56 11 70 3 14 8 41 10 60 2 19 7 46
10 60 3 14 8 45 11 70 3 24 7 48 10 51 2 4 7 28 9 52 3 25 8 56 10 68 7 32 13
66 20 114 3 22 14 90 25 150 10 61 21 124 23 140 3 17 13 73 22 125 9 52 19
110 21 129 2 19 8 57 13 85 17 85 23 119 25 157 2 20 5 40 8 45 3 5 8 32 12
59 3 28 8 61 11 75 3 14 7 35 9 47 3 13 8 28 12 34 5 8 3 9 -6 4 -9 -5 -11 -4
-6 3 8 13 13 35 21 97 3 22 8 48 11 57 3 9 6 32 8 50 2 19 6 43 9 54 3 10 8
39 11 64 3 25 8 56 11 70 3 14 7 39 10 55 2 17 7 41 10 55 3 14 7 47 11 75 3
27 7 53 10 57 3 4 7 27 9 50 3 24 7 54 10 68 3 14 10 52 15 85 6 33 12 71 14
85 3 14 7 41 10 60 3 19 21 127 40 240 19 112 32 208 30 212 -3 4 0 8 6 8 6 0
9 4 6 8 -3 4 -1 26 4 48 10 47 22 120 25 154 1 14 4 34 8 45 3 11 8 40 11 65
4 25 9 59 12 75 4 17 7 40 7 53 1 12 3 22 7 22 3 0 5 10 6 23 1 12 4 40 8 62
4 22 8 54 10 70 2 17 9 59 16 95 7 36 14 79 16 95 3 17 7 41 11 55 3 14 7 39
8 56 2 17 6 44 9 60 9 41 15 73 20 114 4 29 34 210 52 310 2 14 6 36 9 50 22
126 35 210 34 217 -1 4 0 15 4 23 3 8 11 49 18 90 6 41 13 82 14 90 14 80 18
109 20 130 1 14 5 36 9 50 3 14 8 39 11 55 4 31 10 67 19 120 3 17 8 50 11 75
4 25 9 52 10 60 2 8 4 18 4 23 1 4 462 7 1026 7 l1025 0 -9 -22 c-12 -30 -63
-198 -65 -214 -1 -8 -5 -17 -9 -20 -4 -4 -7 -14 -7 -22 0 -8 -14 -59 -30 -114
-17 -54 -44 -144 -61 -200 -33 -109 -54 -178 -90 -293 -11 -38 -22 -74 -23
-80 -10 -44 -28 -103 -36 -117 -6 -10 -10 -23 -10 -30 0 -8 -12 -49 -26 -93
-14 -44 -27 -89 -30 -101 -2 -12 -10 -40 -19 -63 -8 -23 -15 -45 -16 -49 -1
-4 -3 -11 -4 -17 -39 -129 -73 -243 -101 -335 -19 -63 -36 -122 -38 -130 -2
-8 -11 -38 -21 -66 -9 -28 -17 -57 -18 -65 -2 -8 -6 -20 -10 -26 -5 -7 -5 -17
-2 -23 3 -5 1 -10 -6 -10 -7 0 -10 -3 -6 -6 3 -4 0 -22 -8 -40 -8 -19 -14 -38
-15 -42 0 -4 -8 -32 -17 -62 -9 -30 -17 -59 -19 -65 -1 -5 -16 -57 -34 -115
-18 -58 -45 -148 -60 -200 -15 -52 -40 -134 -54 -182 -15 -48 -27 -90 -26 -93
0 -3 -6 -21 -14 -40 -9 -20 -15 -39 -16 -43 -1 -14 -22 -88 -37 -132 -8 -25
-16 -52 -18 -60 -2 -8 -13 -46 -25 -85 -12 -38 -26 -86 -31 -105 -6 -19 -13
-42 -16 -50 -9 -21 -9 -21 -17 -62 -5 -21 -12 -38 -18 -38 -5 0 -7 -4 -4 -8 3
-5 -10 -57 -28 -116 -19 -59 -35 -110 -35 -114 -3 -16 -35 -120 -47 -153 -7
-20 -10 -39 -7 -43 3 -3 1 -11 -5 -18 -6 -8 -20 -45 -30 -83 -11 -39 -25 -82
-31 -97 -6 -16 -8 -28 -5 -28 4 0 2 -6 -4 -12 -6 -7 -10 -16 -10 -21 -1 -21
-16 -73 -24 -84 -6 -7 -8 -13 -5 -13 4 0 -1 -19 -9 -42 -9 -24 -17 -50 -19
-58 -2 -8 -26 -91 -54 -184 -28 -93 -53 -176 -54 -185 -1 -9 -5 -20 -9 -26 -5
-8 -29 -85 -33 -105 -5 -31 -30 -108 -38 -117 -5 -7 -7 -13 -3 -13 3 0 0 -16
-8 -35 -9 -20 -15 -39 -16 -43 -1 -27 -13 -72 -19 -72 -4 0 -7 -9 -8 -19 -1
-11 -11 -50 -23 -88 -12 -37 -23 -75 -25 -83 -2 -8 -18 -60 -35 -115 -17 -55
-33 -109 -35 -119 -3 -11 -11 -40 -20 -66 -9 -26 -17 -55 -20 -66 -2 -10 -18
-64 -35 -119 -17 -55 -33 -108 -35 -118 -2 -9 -7 -22 -10 -27 -4 -6 -9 -23
-11 -37 -5 -26 -38 -139 -51 -173 -3 -8 -7 -19 -8 -25 -2 -5 -37 -125 -80
-265 -42 -140 -78 -262 -80 -270 -2 -8 -4 -15 -5 -15 -2 0 -10 -36 -12 -58 -1
-9 -5 -17 -9 -17 -4 0 -10 -17 -15 -37 -8 -42 -8 -42 -17 -63 -3 -8 -13 -42
-23 -75 -20 -69 -18 -60 -28 -105 -5 -19 -13 -46 -19 -60 -5 -14 -12 -32 -13
-40 -2 -8 -27 -89 -55 -180 -28 -91 -53 -174 -54 -185 -1 -11 -7 -32 -13 -46
-6 -14 -17 -48 -25 -76 l-15 -51 111 -52 c157 -74 171 -80 186 -71 7 5 12 11
12 15 -1 8 68 115 92 140 9 11 17 25 17 32 0 7 7 17 16 22 9 5 14 11 13 13 -4
5 81 132 94 140 5 3 8 9 8 13 -1 5 87 144 99 156 3 3 39 57 80 120 41 63 77
117 80 120 4 3 17 23 30 45 13 22 26 42 30 45 3 3 30 43 60 90 30 47 57 87 60
90 4 3 17 23 30 45 13 22 26 42 30 45 3 3 39 57 80 120 41 63 79 120 83 125
19 24 107 157 107 161 0 3 18 29 40 59 22 30 38 55 35 55 -4 0 0 7 8 15 8 8
25 31 38 52 13 21 25 40 29 43 6 6 83 120 90 135 7 14 43 69 50 75 3 3 52 77
110 165 58 88 107 162 110 165 3 3 30 43 60 90 30 47 58 87 61 90 4 3 15 22
26 42 11 21 23 35 27 31 3 -3 6 -1 6 6 0 10 46 88 60 101 3 3 21 30 40 60 19
30 37 57 40 60 3 3 30 43 60 90 30 47 57 87 60 90 4 3 17 23 30 45 13 22 26
42 30 45 3 3 39 57 80 120 41 63 77 117 80 120 13 12 44 66 42 73 -1 4 2 7 7
7 8 0 48 57 60 85 2 6 21 33 43 62 21 29 38 54 38 57 0 5 60 96 70 106 7 6 83
122 90 135 8 15 64 99 70 105 4 3 17 23 30 45 13 22 28 45 33 50 4 6 44 64 87
130 44 66 83 125 87 130 5 6 33 48 63 95 30 47 58 87 63 88 4 2 7 10 7 17 0 7
3 15 8 17 4 2 36 48 72 103 36 55 67 102 71 105 7 7 123 182 128 195 2 6 21
33 43 62 21 29 38 56 38 61 0 4 8 17 18 28 19 21 47 64 53 79 1 6 8 16 13 23
6 7 16 18 21 25 6 7 35 50 65 97 30 47 59 90 63 95 4 6 57 84 117 175 60 91
113 170 118 176 5 5 15 21 22 35 7 13 16 26 19 29 4 3 42 59 86 125 43 66 83
123 89 127 6 4 8 8 4 8 -5 0 14 30 40 68 26 37 59 85 72 107 13 22 26 42 29
45 4 3 58 84 121 180 64 96 125 188 135 204 11 16 28 40 37 55 10 14 24 35 32
46 8 11 64 95 125 188 88 132 116 167 133 168 111 4 499 -1 508 -6 6 -3 8 -9
6 -13 -2 -4 -7 -34 -10 -67 -9 -101 -17 -168 -22 -205 -2 -19 -7 -62 -10 -95
-3 -33 -7 -71 -10 -85 -2 -14 -6 -52 -9 -85 -6 -59 -10 -102 -21 -180 -2 -22
-7 -58 -9 -80 -2 -22 -7 -69 -11 -105 -4 -36 -8 -78 -9 -95 -1 -16 -3 -30 -5
-30 -1 0 -4 -22 -6 -50 -6 -71 -11 -120 -13 -120 -2 0 -10 -89 -14 -142 0 -13
-5 -23 -10 -23 -5 0 -4 -6 2 -13 6 -8 9 -16 7 -18 -5 -4 -12 -53 -21 -139 -3
-30 -8 -71 -10 -90 -3 -19 -7 -55 -10 -80 -2 -25 -7 -63 -9 -85 -3 -22 -7 -69
-11 -105 -3 -36 -8 -76 -10 -90 -2 -14 -7 -52 -10 -84 -3 -33 -8 -73 -10 -90
-2 -17 -7 -58 -10 -91 -6 -59 -8 -72 -20 -170 -3 -27 -7 -70 -10 -95 -2 -25
-7 -65 -10 -90 -3 -25 -8 -65 -10 -90 -3 -25 -7 -65 -10 -90 -8 -65 -14 -127
-20 -190 -2 -30 -6 -64 -9 -75 -4 -18 -13 -103 -22 -200 -2 -22 -6 -56 -8 -75
-7 -56 -17 -152 -21 -190 -2 -19 -4 -35 -5 -35 -1 0 -3 -18 -5 -40 -3 -41 -12
-122 -20 -190 -8 -68 -16 -138 -20 -179 -2 -22 -7 -61 -10 -88 -4 -27 -8 -65
-10 -86 -2 -20 -6 -62 -9 -92 -4 -30 -9 -80 -12 -110 -3 -30 -7 -66 -9 -80 -2
-14 -7 -56 -11 -95 -3 -38 -8 -79 -10 -90 -2 -10 -6 -49 -10 -85 -3 -36 -7
-77 -10 -91 -2 -14 -6 -52 -9 -85 -3 -32 -8 -70 -10 -84 -2 -14 -7 -56 -10
-95 -3 -38 -8 -81 -10 -95 -3 -14 -7 -51 -10 -83 -4 -32 -8 -66 -10 -77 -2
-10 -6 -55 -10 -100 -4 -45 -9 -92 -11 -103 -2 -12 -7 -49 -10 -82 -3 -33 -7
-78 -10 -100 -10 -86 -12 -104 -29 -255 -3 -30 -7 -71 -10 -90 -2 -19 -6 -62
-9 -95 -4 -33 -9 -76 -12 -95 -3 -19 -8 -57 -10 -85 -9 -97 -13 -140 -18 -175
-3 -19 -8 -62 -11 -95 -3 -33 -8 -73 -10 -90 -2 -16 -7 -57 -10 -90 -4 -33 -8
-71 -10 -85 -2 -14 -6 -55 -10 -91 l-7 -65 49 -12 c26 -7 57 -15 68 -18 11 -3
31 -7 45 -10 14 -3 48 -11 77 -19 66 -19 70 -19 79 7 3 12 13 37 22 57 9 20
16 38 17 41 3 10 17 46 26 65 4 11 36 90 69 175 34 85 65 164 70 175 5 11 37
89 71 174 33 85 65 166 71 180 6 14 11 29 10 34 -1 4 3 7 9 7 5 0 8 4 5 8 -2
4 2 21 9 37 8 17 28 66 46 110 17 44 36 91 42 105 5 14 11 30 13 35 2 10 63
161 88 220 35 82 60 151 58 158 -1 4 3 7 8 7 6 0 10 6 10 13 0 10 89 240 129
332 23 53 102 252 106 265 2 8 74 188 160 400 85 212 157 392 159 400 4 13 41
105 67 165 12 28 31 78 35 90 3 12 231 581 246 615 6 14 12 30 14 35 1 6 28
71 59 145 31 74 58 142 60 150 2 8 19 52 38 97 20 44 33 84 30 87 -4 3 -1 6 5
6 7 0 12 6 12 13 0 11 42 121 118 307 15 36 26 68 24 72 -1 5 2 8 8 8 5 0 10
6 10 14 0 12 47 136 81 211 4 11 40 101 79 200 39 99 75 189 80 200 5 11 37
90 71 175 33 85 67 169 74 185 7 17 34 84 60 150 26 66 52 126 57 133 6 6 8
12 5 12 -5 0 112 297 149 377 7 17 14 38 14 47 0 9 4 16 10 16 5 0 9 3 8 8 0
4 2 16 6 27 26 70 37 98 65 165 17 41 71 179 121 305 50 127 96 238 101 249 6
10 12 26 14 35 2 10 12 37 23 62 21 47 33 78 38 94 1 6 15 42 32 80 34 80 44
106 48 120 7 22 70 171 82 192 7 12 19 20 29 18 10 -2 131 -7 268 -10z"/>
</g>
</svg>
