<?xml version="1.0" encoding="UTF-8" standalone="no"?>
<svg
   xmlns:dc="http://purl.org/dc/elements/1.1/"
   xmlns:cc="http://creativecommons.org/ns#"
   xmlns:rdf="http://www.w3.org/1999/02/22-rdf-syntax-ns#"
   xmlns:svg="http://www.w3.org/2000/svg"
   xmlns="http://www.w3.org/2000/svg"
   xmlns:sodipodi="http://sodipodi.sourceforge.net/DTD/sodipodi-0.dtd"
   xmlns:inkscape="http://www.inkscape.org/namespaces/inkscape"
   width="770.47559"
   height="134"
   viewBox="0 0 203.85499 35.454168"
   version="1.1"
   id="svg8"
   sodipodi:docname="logo.svg"
   inkscape:version="1.0 (4035a4fb49, 2020-05-01)">
  <defs
     id="defs2" />
  <sodipodi:namedview
     fit-margin-bottom="0"
     fit-margin-right="0"
     fit-margin-left="0"
     fit-margin-top="0"
     units="px"
     id="base"
     pagecolor="#ffffff"
     bordercolor="#666666"
     borderopacity="1.0"
     inkscape:pageopacity="0.0"
     inkscape:pageshadow="2"
     inkscape:zoom="1.4"
     inkscape:cx="425.75862"
     inkscape:cy="77.524157"
     inkscape:document-units="mm"
     inkscape:current-layer="layer1"
     inkscape:document-rotation="0"
     showgrid="false"
     showguides="true"
     inkscape:guide-bbox="true"
     inkscape:window-width="1920"
     inkscape:window-height="1017"
     inkscape:window-x="-8"
     inkscape:window-y="-8"
     inkscape:window-maximized="1">
    <inkscape:grid
       originy="-39.158341"
       originx="-4.6670081"
       type="xygrid"
       id="grid833" />
    <sodipodi:guide
       position="151.43716,3.1749989"
       orientation="0,-1"
       id="guide835" />
    <sodipodi:guide
       position="45.603823,34.925008"
       orientation="0,-1"
       id="guide863" />
  </sodipodi:namedview>
  <metadata
     id="metadata5">
    <rdf:RDF>
      <cc:Work
         rdf:about="">
        <dc:format>image/svg+xml</dc:format>
        <dc:type
           rdf:resource="http://purl.org/dc/dcmitype/StillImage" />
        <dc:title></dc:title>
      </cc:Work>
    </rdf:RDF>
  </metadata>
  <g
     transform="translate(-4.6670083,-39.158332)"
     inkscape:label="レイヤー 1"
     inkscape:groupmode="layer"
     id="layer1">
    <path
       style="fill:none;stroke:#ff9100;stroke-width:1.05833;stroke-linecap:butt;stroke-linejoin:miter;stroke-miterlimit:4;stroke-dasharray:none;stroke-opacity:1"
       d="m 5.2916667,71.437491 7.9374983,-2e-6 10.583334,-18.520822 -2.645833,18.520824 h 7.937499 C 42.333332,39.6875 44.979165,39.6875 37.041665,39.6875 l -10.583333,26.458333 2.645835,-23.8125 h -2.645834 l -15.875001,23.8125 7.9375,-26.458333 h -7.9375 z"
       id="path839"
       sodipodi:nodetypes="ccccccccccccc" />
    <path
       style="fill:none;stroke:#ff9100;stroke-width:1.05833;stroke-linecap:butt;stroke-linejoin:miter;stroke-miterlimit:4;stroke-dasharray:none;stroke-opacity:1"
       d="M 55.827082,71.437489 H 34.660416 l 2.807937,-6.551849 5.129563,-11.968974 c 21.166667,10e-7 21.166667,10e-7 15.875,11.90625 h -15.875 l -1.852083,3.968751 13.756174,-10e-7 c 2.647993,10e-7 2.647993,10e-7 1.999389,1.297201 z"
       id="path841"
       sodipodi:nodetypes="cccccccccc" />
    <path
       style="fill:none;stroke:#ff9100;stroke-width:1.05833;stroke-linecap:butt;stroke-linejoin:miter;stroke-miterlimit:4;stroke-dasharray:none;stroke-opacity:1"
       d="m 43.656249,62.177083 2.116668,-5.291666 c 12.700001,1e-6 12.7,0 10.054166,5.291666 z"
       id="path843"
       sodipodi:nodetypes="cccc" />
    <path
       sodipodi:nodetypes="cccccccccc"
       id="path841-1"
       d="m 66.145832,55.5625 21.16666,-3e-5 -2.80793,6.551853 -5.12955,11.968981 c -21.166653,3e-5 -21.166653,3e-5 -15.87501,-11.906227 l 15.875,-2.3e-5 1.85207,-3.968754 -13.756166,2.1e-5 c -2.64799,3e-6 -2.64799,3e-6 -1.999392,-1.297198 z"
       style="fill:none;stroke:#ff9100;stroke-width:1.05833;stroke-linecap:butt;stroke-linejoin:miter;stroke-miterlimit:4;stroke-dasharray:none;stroke-opacity:1" />
    <path
       sodipodi:nodetypes="cccc"
       id="path843-3"
       d="m 78.316672,64.822889 -2.11666,5.291669 c -12.699999,1.7e-5 -12.699999,1.8e-5 -10.054177,-5.291652 z"
       style="fill:none;stroke:#ff9100;stroke-width:1.05833;stroke-linecap:butt;stroke-linejoin:miter;stroke-miterlimit:4;stroke-dasharray:none;stroke-opacity:1" />
    <path
       style="fill:none;stroke:#ff9100;stroke-width:1.05833;stroke-linecap:butt;stroke-linejoin:miter;stroke-miterlimit:4;stroke-dasharray:none;stroke-opacity:1"
       d="m 91.281242,71.437505 3.89875,-9.357005 9.330418,9.357005 1.58751,-3.968755 -9.304818,-9.259704 13.273568,-7.13e-4 0.53097,-1.327429 C 111.125,55.5625 111.125,55.5625 108.54481,55.565121 L 97.890252,55.575884 104.51041,39.6875 h -5.29167 l -13.229158,31.75 z"
       id="path865"
       sodipodi:nodetypes="ccccccccccccc" />
    <path
       sodipodi:nodetypes="cccccccccc"
       id="path841-4"
       d="m 128.32291,71.437491 h -21.16666 l 2.80794,-6.551849 5.12956,-11.968974 c 21.16667,10e-7 21.16667,10e-7 15.875,11.90625 h -15.875 l -1.85208,3.968751 13.75617,-10e-7 c 2.64799,10e-7 2.64799,10e-7 1.99939,1.297201 z"
       style="fill:none;stroke:#ff9100;stroke-width:1.05833;stroke-linecap:butt;stroke-linejoin:miter;stroke-miterlimit:4;stroke-dasharray:none;stroke-opacity:1" />
    <path
       sodipodi:nodetypes="cccc"
       id="path843-8"
       d="m 116.15208,62.177085 2.11667,-5.291666 c 12.7,1e-6 12.7,0 10.05417,5.291666 z"
       style="fill:none;stroke:#ff9100;stroke-width:1.05833;stroke-linecap:butt;stroke-linejoin:miter;stroke-miterlimit:4;stroke-dasharray:none;stroke-opacity:1" />
    <path
       style="fill:#ff9100;fill-opacity:1;stroke:#ff9100;stroke-width:1.05833;stroke-linecap:butt;stroke-linejoin:miter;stroke-miterlimit:4;stroke-dasharray:none;stroke-opacity:1"
       d="M 133.61458,71.437501 139.7,56.885429 h -4.23334 c 0.70556,-1.76389 0.88195,-2.204862 1.5875,-3.96875 l 4.49792,-1e-6 h 5.29166 l 5.02709,1e-6 c -0.52916,1.32292 -1.05832,2.645836 -1.5875,3.96875 h -5.29167 c 0,0 -4.19563,10.142592 -6.08542,14.552089 z"
       id="path885"
       sodipodi:nodetypes="ccccccccccc" />
    <path
       style="fill:none;stroke:#ff9100;stroke-width:1.05833;stroke-linecap:butt;stroke-linejoin:miter;stroke-miterlimit:4;stroke-dasharray:none;stroke-opacity:1"
       d="m 164.04166,55.562512 -6.61458,15.874989 -1.32291,2.645832 h -6.61459 c 0,0 1.32292,0 3.44235,-4.50437 l -7.4111,-7.401868 1.32292,-2.645833 7.28571,7.253468 4.62054,-11.222218 z"
       id="path887"
       sodipodi:nodetypes="cccccccccc" />
    <path
       style="fill:#ff9100;fill-opacity:1;stroke:#ff9100;stroke-width:1.05833;stroke-linecap:butt;stroke-linejoin:miter;stroke-miterlimit:4;stroke-dasharray:none;stroke-opacity:1"
       d="m 165.36458,74.083333 h -5.29167 c 0,0 1.04115,-1.694625 1.48503,-2.583097 1.93994,-3.88299 6.45247,-15.937736 6.45247,-15.937736 15.875,-1e-5 15.875,0 9.26042,15.875001 l -10.58333,1.1e-5 z"
       id="path841-4-0"
       sodipodi:nodetypes="ccscccc" />
    <path
       style="fill:#ffffff;fill-opacity:1;stroke:#ff9100;stroke-width:1.05833;stroke-linecap:butt;stroke-linejoin:miter;stroke-miterlimit:4;stroke-dasharray:none;stroke-opacity:1"
       d="m 167.74583,68.791679 3.43959,-9.260416 c 7.40833,-1.1e-5 7.40832,-1.3e-5 3.43958,9.260405 z"
       id="path843-8-5"
       sodipodi:nodetypes="cccc" />
    <path
       style="fill:#ff9100;fill-opacity:1;stroke:#ff9100;stroke-width:1.05833;stroke-linecap:butt;stroke-linejoin:miter;stroke-miterlimit:4;stroke-dasharray:none;stroke-opacity:1"
       d="m 202.40624,71.437501 h -21.16666 l 2.80794,-6.551849 5.12956,-11.968974 c 21.16667,1e-6 21.16667,1e-6 15.875,11.90625 h -15.875 l -1.85208,3.968751 13.75617,-10e-7 c 2.64799,10e-7 2.64799,10e-7 1.99939,1.297201 z"
       id="path841-4-6"
       sodipodi:nodetypes="cccccccccc" />
    <path
       style="fill:#ffffff;fill-opacity:1;stroke:#ff9100;stroke-width:1.05833;stroke-linecap:butt;stroke-linejoin:miter;stroke-miterlimit:4;stroke-dasharray:none;stroke-opacity:1"
       d="m 190.23541,62.177095 2.11667,-5.291666 c 12.7,10e-7 12.7,0 10.05417,5.291666 z"
       id="path843-8-4"
       sodipodi:nodetypes="cccc" />
  </g>
</svg>
